<svg preserveAspectRatio="none" overflow="visible" style="display: block;" width="32" height="32" viewBox="0 0 32 32" fill="none" xmlns="http://www.w3.org/2000/svg">
<g id="Fan">
<path id="Vector" d="M29.125 16.875C28.8222 15.7438 28.2587 14.6993 27.4797 13.825C26.7006 12.9508 25.7277 12.2711 24.6388 11.8404C23.5499 11.4096 22.3753 11.2399 21.209 11.3446C20.0427 11.4494 18.9172 11.8258 17.9225 12.4438L19.9713 4.26375C20.0221 4.06052 20.0078 3.84646 19.9304 3.65178C19.853 3.4571 19.7165 3.29164 19.54 3.17875C18.6895 2.64169 17.7396 2.28121 16.7469 2.11875C15.7543 1.9563 14.739 1.99519 13.7617 2.2331C12.7844 2.47102 11.8649 2.90311 11.0579 3.50366C10.251 4.1042 9.57308 4.86094 9.06458 5.72883C8.55607 6.59671 8.22734 7.55802 8.09795 8.55555C7.96857 9.55309 8.04116 10.5665 8.31141 11.5354C8.58167 12.5043 9.04407 13.4089 9.67109 14.1954C10.2981 14.982 11.0769 15.6344 11.9613 16.1138L3.8525 18.43C3.65105 18.4874 3.4727 18.6066 3.34262 18.7707C3.21254 18.9349 3.13729 19.1358 3.1275 19.345C3.05054 21.0524 3.55904 22.7349 4.56881 24.1138C5.57858 25.4927 7.02904 26.4854 8.68 26.9275C9.31678 27.0985 9.97317 27.1855 10.6325 27.1863C11.6372 27.1836 12.6311 26.9793 13.5555 26.5856C14.4798 26.1918 15.3157 25.6166 16.0137 24.8939C16.7116 24.1712 17.2575 23.3158 17.6188 22.3783C17.9802 21.4409 18.1498 20.4404 18.1175 19.4363L24.1775 25.3013C24.3282 25.4471 24.5209 25.5418 24.7284 25.5721C24.9359 25.6024 25.1477 25.5667 25.3338 25.47C26.85 24.6833 28.0523 23.4025 28.7417 21.8396C29.4311 20.2767 29.5663 18.5252 29.125 16.875ZM16.305 18.4813C15.8142 18.5416 15.3166 18.455 14.875 18.2326C14.4334 18.0101 14.0678 17.6616 13.8242 17.2313C13.5807 16.801 13.4702 16.3081 13.5068 15.815C13.5433 15.3219 13.7253 14.8507 14.0297 14.461C14.334 14.0714 14.7471 13.7807 15.2167 13.6258C15.6863 13.4709 16.1912 13.4587 16.6677 13.5908C17.1442 13.7229 17.5708 13.9933 17.8936 14.3678C18.2165 14.7424 18.4209 15.2042 18.4813 15.695C18.5621 16.3531 18.3783 17.0163 17.9702 17.5388C17.562 18.0613 16.9631 18.4003 16.305 18.4813Z" fill="currentColor"/>
</g>
</svg>
